<?xml version="1.0"?>
<svg xmlns="http://www.w3.org/2000/svg" xmlns:xlink="http://www.w3.org/1999/xlink" xmlns:svgjs="http://svgjs.com/svgjs" version="1.1" width="512" height="512" x="0" y="0" viewBox="0 0 512 512" style="enable-background:new 0 0 512 512" xml:space="preserve" class=""><g><g xmlns="http://www.w3.org/2000/svg"><g><path d="m394 32.841-15.204-15.204c-23.516-23.516-61.643-23.516-85.159 0l-17.186 17.186 55.848 55.848c18.911 18.911 18.911 49.571 0 68.482l-84.92 84.92 17.397 17.397 129.224-143.47c23.516-23.516 23.516-61.643 0-85.159z" fill="#ffffff" data-original="#2ee66b" style="" class=""/><path d="m494.363 133.204-15.204-15.204c-23.516-23.516-61.643-23.516-85.159 0l-136.347 136.347 10.274 10.274 84.92-84.92c18.911-18.911 49.571-18.911 68.482 0l55.848 55.848 17.186-17.186c23.516-23.516 23.516-61.643 0-85.159z" fill="#ededed" data-original="#24b383" style="" class=""/></g><g><path d="m327.954 163.181c-29.566-29.566-74.64-32.887-107.747-11.582-7.75 4.987 6.63 14.061.543 21.727-.36.453-22.195-1.83-22.557-1.374-19.789 24.955-42.325 54.228-64.583 84.948-2.96 4.085.432 14.542-2.511 18.672-2.937 4.122-12.209 1.915-15.115 6.068-4.134 5.907-8.229 11.838-12.265 17.775-66.198 97.361-115.377 196.094-101.302 210.168l229.889-186.379 106.08-149.591z" fill="#ffffff" data-original="#eaa023" style="" class=""/><path d="m348.819 184.046-10.432-10.432-335.97 335.969c11.037 11.037 74.138-16.825 147.811-61.289 3.84-2.318-.268-12.658 3.624-15.063 4.753-2.937 17.517 2.042 22.327-1.014 12.045-7.653 24.237-15.662 36.407-23.936 25.973-17.66 51.85-36.449 76.011-54.662 4.189-3.157-.623-15.246 3.454-18.36 3.932-3.003 16.758 2.967 20.571.02 10.086-7.794 19.729-15.361 28.789-22.554 40.412-32.086 43.895-92.192 7.408-128.679z" fill="#ededed" data-original="#ff8659" style="" class=""/></g><g><path d="m261.712 284.369-21.183 21.183 48.067 48.067c8.229-6.203 16.258-12.338 24.025-18.34z" fill="#ffffff" data-original="#eaa023" style="" class=""/><path d="m176.385 432.085-48.235-48.235-21.183 21.183 43.26 43.26c8.598-5.189 17.338-10.602 26.158-16.208z" fill="#ffffff" data-original="#eaa023" style="" class=""/><g fill="#ff8659"><path d="m115.986 281.64 50.54 50.54 21.183-21.183-54.097-54.097c-5.915 8.163-11.809 16.427-17.626 24.74z" fill="#ededed" data-original="#ff8659" style="" class=""/><path d="m274.238 205.632-54.03-54.03c-7.751 4.987-14.847 11.321-20.933 18.987-.358.451-.721.91-1.081 1.364l54.862 54.862z" fill="#ededed" data-original="#ff8659" style="" class=""/></g></g></g></g></svg>
